# xmcd
#
# Track frame offsets:
#	150
#	14550
#	32755
#	48237
#	66552
#	85752
#	101012
#	115550
#	138540
#	156900
#	172345
#	194370
#	207560
#	228620
#	254648
#	272211
#	290781
#	307728
#	325128
#	338676
#
# Disc length: 4736 seconds
#
# Revision: 1
# Processed by: cddbd v1.5.1PL0 Copyright (c) Steve Scherf et al.
# Submitted via: audiograbber 1.82.02
#
DISCID=35127e14
DTITLE=Alan Jackson - Greatest
DYEAR=1900
DGENRE=Pop
TTITLE0=Too Much Of A Goo Thing
TTITLE1=Drive
TTITLE2=Usa Today
TTITLE3=Bring On The Thing
TTITLE4=If French Fris Were Fat Free
TTITLE5=The Sounds
TTITLE6=There Ya Go
TTITLE7=Where Were You
TTITLE8=Strong Enough
TTITLE9=Onde In A Lifertime
TTITLE10=Burnin' The Honky Thonks Down
TTITLE11=I Slipped And Fell In Love
TTITLE12=Rainy Day In June
TTITLE13=Where Were You (Live)
TTITLE14=If LOve Was A River
TTITLE15=Work In Progress
TTITLE16=You Don't Have To Paint
TTITLE17=Designated Drinker
TTITLE18=To Do What I Do
TTITLE19=Tha's Be Alright
EXTD=
EXTT0=
EXTT1=
EXTT2=
EXTT3=
EXTT4=
EXTT5=
EXTT6=
EXTT7=
EXTT8=
EXTT9=
EXTT10=
EXTT11=
EXTT12=
EXTT13=
EXTT14=
EXTT15=
EXTT16=
EXTT17=
EXTT18=
EXTT19=
PLAYORDER=
